<svg width="103" height="137" viewBox="0 0 103 137" fill="none" xmlns="http://www.w3.org/2000/svg">
<path d="M51.375 137C51.375 137 102.75 88.3136 102.75 51.375C102.75 37.7495 97.3373 24.6821 87.7026 15.0474C78.0679 5.41271 65.0005 0 51.375 0C37.7495 0 24.6821 5.41271 15.0474 15.0474C5.41271 24.6821 2.03036e-07 37.7495 0 51.375C0 88.3136 51.375 137 51.375 137ZM51.375 77.0625C44.5623 77.0625 38.0285 74.3561 33.2112 69.5388C28.3939 64.7215 25.6875 58.1877 25.6875 51.375C25.6875 44.5623 28.3939 38.0285 33.2112 33.2112C38.0285 28.3939 44.5623 25.6875 51.375 25.6875C58.1878 25.6875 64.7215 28.3939 69.5388 33.2112C74.3562 38.0285 77.0625 44.5623 77.0625 51.375C77.0625 58.1877 74.3562 64.7215 69.5388 69.5388C64.7215 74.3561 58.1878 77.0625 51.375 77.0625Z" fill="#180F12"/>
<circle cx="51.3751" cy="50.7544" r="25.9093" fill="white"/>
<ellipse cx="36.8722" cy="50.4305" rx="2.80046" ry="2.87042" fill="black"/>
<ellipse cx="65.3451" cy="50.4305" rx="2.80046" ry="2.87042" fill="black"/>
<path d="M43.4075 53.3002V53.3002C45.5893 60.4182 55.6675 60.4098 57.8765 53.3002V53.3002" stroke="black" stroke-width="1.49391"/>
</svg>
