<svg width="187" height="488" viewBox="0 0 187 488" fill="none" xmlns="http://www.w3.org/2000/svg">
<rect x="32.6388" width="154.358" height="458.279" fill="#C5E3FF"/>
<rect x="42.2261" y="13.4224" width="134.224" height="90.1218" fill="white"/>
<rect x="42.2261" y="341.312" width="134.224" height="90.1218" fill="white"/>
<rect x="42.2261" y="232.016" width="134.224" height="90.1218" fill="white"/>
<rect x="42.2261" y="122.719" width="134.224" height="90.1218" fill="white"/>
<line x1="77.1301" y1="451.11" x2="64.6665" y2="484.666" stroke="black" stroke-width="2.87623"/>
<line x1="155.915" y1="484.631" x2="144.41" y2="451.076" stroke="black" stroke-width="2.87623"/>
<circle cx="81.5344" cy="380.621" r="5.75245" fill="black"/>
<circle cx="140.018" cy="380.621" r="5.75245" fill="black"/>
<path d="M94.9568 386.373V386.373C99.5168 400.887 120.061 400.869 124.678 386.373V386.373" stroke="black" stroke-width="2.87623"/>
<path d="M41.2672 380.62L18.7176 412.682M18.7176 412.682V428.557M18.7176 412.682L1 423.265" stroke="black" stroke-width="2.87623"/>
<path d="M180.285 380.62L157.735 412.682M157.735 412.682V428.557M157.735 412.682L140.017 423.265" stroke="black" stroke-width="2.87623"/>
<ellipse cx="58.0452" cy="482.727" rx="11.0255" ry="5.27308" fill="#C5E3FF"/>
<ellipse cx="151.043" cy="482.727" rx="11.0255" ry="5.27308" fill="#C5E3FF"/>
</svg>
