<svg width="102" height="136" viewBox="0 0 102 136" fill="none" xmlns="http://www.w3.org/2000/svg">
<path d="M51 136C51 136 102 87.669 102 51C102 37.474 96.6268 24.5019 87.0624 14.9376C77.4981 5.3732 64.526 0 51 0C37.474 0 24.5019 5.3732 14.9376 14.9376C5.3732 24.5019 2.01554e-07 37.474 0 51C0 87.669 51 136 51 136ZM51 76.5C44.237 76.5 37.751 73.8134 32.9688 69.0312C28.1866 64.249 25.5 57.763 25.5 51C25.5 44.237 28.1866 37.751 32.9688 32.9688C37.751 28.1866 44.237 25.5 51 25.5C57.763 25.5 64.249 28.1866 69.0312 32.9688C73.8134 37.751 76.5 44.237 76.5 51C76.5 57.763 73.8134 64.249 69.0312 69.0312C64.249 73.8134 57.763 76.5 51 76.5Z" fill="#EFA5B3"/>
<circle cx="51" cy="50.3841" r="25.7202" fill="white"/>
<ellipse cx="36.603" cy="50.0624" rx="2.78002" ry="2.84947" fill="black"/>
<ellipse cx="64.8686" cy="50.0624" rx="2.78002" ry="2.84947" fill="black"/>
<path d="M43.0906 52.9111V52.9111C45.2565 59.9772 55.2611 59.9689 57.454 52.9111V52.9111" stroke="black" stroke-width="1.483"/>
</svg>
