<svg width="33" height="43" viewBox="0 0 33 43" fill="none" xmlns="http://www.w3.org/2000/svg">
<path d="M16.125 43C16.125 43 32.25 27.7189 32.25 16.125C32.25 11.8484 30.5511 7.74693 27.5271 4.7229C24.5031 1.69888 20.4016 0 16.125 0C11.8484 0 7.74693 1.69888 4.7229 4.7229C1.69888 7.74693 6.37265e-08 11.8484 0 16.125C0 27.7189 16.125 43 16.125 43ZM16.125 24.1875C13.9867 24.1875 11.936 23.3381 10.424 21.826C8.91194 20.314 8.0625 18.2633 8.0625 16.125C8.0625 13.9867 8.91194 11.936 10.424 10.424C11.936 8.91194 13.9867 8.0625 16.125 8.0625C18.2633 8.0625 20.314 8.91194 21.8261 10.424C23.3381 11.936 24.1875 13.9867 24.1875 16.125C24.1875 18.2633 23.3381 20.314 21.8261 21.826C20.314 23.3381 18.2633 24.1875 16.125 24.1875Z" fill="#EFA5B3"/>
<circle cx="16.125" cy="15.9302" r="8.13212" fill="white"/>
<ellipse cx="11.5731" cy="15.8285" rx="0.878978" ry="0.900935" fill="black"/>
<ellipse cx="20.5098" cy="15.8285" rx="0.878978" ry="0.900935" fill="black"/>
<path d="M13.6243 16.7292V16.7292C14.3091 18.9634 17.4723 18.9607 18.1657 16.7292V16.7292" stroke="black" stroke-width="0.468891"/>
</svg>
